<svg width="57" height="57" viewBox="0 0 57 57" fill="none" xmlns="http://www.w3.org/2000/svg">
<g clip-path="url(#clip0_410_613)">
<path d="M13.6597 34.7426C8.68377 34.686 4.38168 32.9396 0.668249 29.6779C-0.245299 28.8747 -0.214754 28.0549 0.716379 27.2563C3.51071 24.8589 6.65675 23.1756 10.3258 22.5914C16.5031 21.6021 21.9214 23.2019 26.5808 27.3908C27.4055 28.1328 27.4231 28.8524 26.6021 29.5981C23.6467 32.2877 20.21 33.9765 16.2356 34.5135C15.3831 34.6276 14.5186 34.6684 13.6597 34.7426Z" fill="#DBF066"/>
<path d="M34.7093 14.0839C34.6722 18.3974 33.0923 22.6339 29.8824 26.2481C29.7043 26.4613 29.5073 26.6578 29.2937 26.8352C28.804 27.2136 28.2552 27.2145 27.7581 26.8491C27.588 26.7163 27.4311 26.5672 27.2898 26.4039C20.6534 19.1746 20.6599 7.95451 27.3046 0.688074C28.1571 -0.239358 28.9318 -0.230084 29.7991 0.737228C33.0701 4.38853 34.6852 8.67419 34.7093 14.0839Z" fill="#DBF066"/>
<path d="M43.3292 34.7973C38.4106 34.6582 34.1659 32.9267 30.5275 29.6705C29.638 28.8747 29.6445 28.1263 30.5275 27.3222C38.0626 20.4787 48.6864 21.0824 55.0877 26.302C55.4941 26.6331 55.9161 26.9466 56.3114 27.2916C57.2203 28.0864 57.2295 28.9026 56.316 29.7159C53.7244 32.0187 50.7625 33.6028 47.3545 34.2789C46.0319 34.5413 44.6731 34.6295 43.3292 34.7973Z" fill="#DBF066"/>
<path d="M22.325 43.6894C22.3398 38.5236 24.0641 34.2713 27.2814 30.6006C28.145 29.6147 28.8734 29.6036 29.7527 30.5866C32.8997 34.1035 34.5843 38.2185 34.7046 42.9475C34.8369 48.1346 33.108 52.6308 29.6083 56.45C28.9262 57.1919 28.0561 57.1836 27.3731 56.4166C24.0789 52.7189 22.3416 48.4119 22.325 43.6894Z" fill="#DBF066"/>
<path d="M40.7496 13.3282C41.3246 13.3241 41.8879 13.4905 42.3687 13.8064C42.8495 14.1224 43.2263 14.5737 43.4517 15.1038C43.6771 15.6338 43.741 16.2188 43.6354 16.7851C43.5298 17.3514 43.2594 17.8738 42.8581 18.2865C42.4569 18.6992 41.9429 18.9837 41.3806 19.1044C40.8184 19.225 40.2331 19.1763 39.6984 18.9644C39.1637 18.7525 38.7035 18.3869 38.3758 17.9136C38.048 17.4403 37.8672 16.8804 37.8562 16.3043C37.8454 15.917 37.9124 15.5315 38.053 15.1706C38.1936 14.8097 38.4051 14.4808 38.6749 14.2032C38.9447 13.9257 39.2673 13.7053 39.6237 13.555C39.9801 13.4047 40.3629 13.3276 40.7496 13.3282Z" fill="#DBF066"/>
<path d="M40.7384 37.8726C41.1237 37.8675 41.5062 37.9389 41.8639 38.0825C42.2216 38.2261 42.5474 38.4391 42.8227 38.7093C43.0979 38.9795 43.3171 39.3015 43.4678 39.6569C43.6184 40.0123 43.6974 40.394 43.7003 40.7801C43.7207 42.3799 42.3823 43.7293 40.7764 43.7284C40.0014 43.7329 39.2564 43.4288 38.7052 42.8829C38.154 42.3371 37.8417 41.5942 37.8372 40.8176C37.8327 40.0411 38.1362 39.2946 38.6809 38.7423C39.2257 38.19 39.9672 37.8771 40.7421 37.8726H40.7384Z" fill="#DBF066"/>
<path d="M16.2948 13.3439C17.9488 13.3606 19.1844 14.6423 19.152 16.3062C19.1206 17.9551 17.8396 19.1738 16.1661 19.1478C14.5658 19.1228 13.344 17.855 13.356 16.232C13.3672 14.5746 14.638 13.3263 16.2948 13.3439Z" fill="#DBF066"/>
<path d="M19.154 40.7438C19.1611 41.3222 18.9961 41.8897 18.6801 42.3737C18.364 42.8578 17.9112 43.2365 17.3794 43.4616C16.8476 43.6867 16.2609 43.748 15.6942 43.6376C15.1275 43.5271 14.6065 43.2501 14.1977 42.8417C13.7888 42.4333 13.5106 41.9122 13.3986 41.3447C13.2866 40.7773 13.3458 40.1892 13.5688 39.6556C13.7917 39.1221 14.1682 38.6671 14.6503 38.3489C15.1324 38.0306 15.6981 37.8635 16.2754 37.8688C17.0363 37.8717 17.7654 38.1752 18.3044 38.7135C18.8433 39.2518 19.1486 39.9814 19.154 40.7438Z" fill="#DBF066"/>
</g>
<defs>
<clipPath id="clip0_410_613">
<rect width="57" height="57" fill="white"/>
</clipPath>
</defs>
</svg>
