<svg width="56" height="56" viewBox="0 0 56 56" fill="none" xmlns="http://www.w3.org/2000/svg">
<g clip-path="url(#clip0_410_639)">
<path d="M56 28.1651C55.9818 43.6075 42.9993 56.1569 27.738 55.9982C12.5742 55.8413 -0.10115 43.1623 -9.23046e-06 27.9763C0.102954 12.5768 12.6189 -0.0912276 28.2465 1.39383e-06C43.5542 0.0912304 56.0556 12.762 56 28.1651ZM53.2938 29.8821C52.4737 30.32 52.0519 30.9239 51.927 31.7021C51.8298 32.4235 51.769 33.1494 51.7448 33.877C51.7029 34.6442 51.5626 35.3713 51.1981 36.0665C50.5584 37.3041 49.9428 38.5543 49.3511 39.8169C48.6687 41.2702 47.6582 42.4114 46.224 43.1312C44.2613 44.1165 42.4882 43.4898 41.5478 41.5183C40.8189 40.0012 40.3633 38.3955 40.079 36.747C39.9763 36.0918 39.9601 35.4259 40.0307 34.7665C40.14 33.6252 40.0854 32.5313 39.5751 31.4767C39.3208 30.926 39.0978 30.3613 38.9072 29.7854C38.5428 28.7399 38.1564 28.4461 37.0338 28.447C36.2138 28.447 35.3937 28.4972 34.5737 28.4671C32.8105 28.4005 31.4757 27.5639 30.7267 25.9838C29.6333 23.6849 29.6269 21.4096 31.1996 19.2758C31.4875 18.8844 31.8274 18.5295 32.0944 18.1254C33.3973 16.1548 35.2634 15.186 37.5778 14.9935C37.8507 14.9801 38.1227 14.9515 38.3924 14.9077C39.5268 14.6824 40.4808 14.9552 41.2763 15.8273C41.8631 16.4705 42.6239 16.6931 43.5005 16.6548C44.7132 16.6019 45.9288 16.621 47.1452 16.6C47.3246 16.5859 47.5028 16.5585 47.6782 16.5179C46.849 16.0426 46.0709 15.5837 45.2782 15.1495C45.0986 15.0485 44.8903 15.0109 44.6868 15.0427C44.123 15.1927 43.5228 15.113 43.0175 14.8211C42.8809 14.7444 42.6531 14.6915 42.5292 14.7554C41.7182 15.1878 41.0048 14.9187 40.294 14.5118C39.5469 14.0839 38.745 13.9526 37.925 14.219C37.3532 14.4151 36.7921 14.6411 36.2439 14.8959C35.0657 15.4168 33.9267 15.2854 32.8397 14.6705C32.2474 14.3348 31.9048 13.7756 31.9458 13.0841C31.9868 12.3925 32.3686 11.8871 33.0146 11.6244C33.3191 11.4878 33.6406 11.3933 33.9705 11.3434C34.6083 11.2677 35.1176 10.9785 35.5659 10.5424C36.0142 10.1063 36.4361 9.69491 36.8744 9.27434C37.5068 8.65454 38.2612 8.17329 39.0895 7.8612C39.2799 7.79004 39.4612 7.69699 39.5113 7.67875C39.3719 6.85768 39.2489 6.12329 39.1013 5.2484C37.6762 4.35527 35.9514 3.79786 34.1864 3.35358C33.9805 3.30249 33.6734 3.45849 33.4784 3.60446C33.0438 3.93197 32.7039 4.42552 32.231 4.6545C30.4573 5.50822 28.7615 6.51557 27.1631 7.66506C26.2173 8.35384 25.2596 8.07012 24.5307 7.13685C24.0949 6.57942 23.8939 5.87365 23.9703 5.16995C24.0122 4.68735 24.1106 4.20931 24.1717 3.72762C24.2045 3.47491 24.2109 3.21856 24.2291 2.95308C21.3352 3.07898 15.593 5.35332 14.2508 6.87593C14.9724 7.58934 15.1875 7.60576 15.9009 6.94983C16.2572 6.62049 16.5852 6.26013 16.926 5.91346C17.8727 4.94826 18.9916 4.77949 20.1789 5.33142C20.8071 5.63085 21.3899 6.01752 21.9101 6.48C22.6146 7.07668 23.0698 7.91628 23.1858 8.83279C23.3097 9.8427 22.9717 10.4685 22.0596 10.8873C21.7024 11.0515 21.3097 11.1345 20.9507 11.2951C20.7119 11.4027 20.4331 11.5323 20.2946 11.7357C19.603 12.7575 18.5971 13.3377 17.5474 13.9179C15.4362 15.0847 13.6567 16.5873 12.7774 18.9583C12.3382 20.1443 11.5865 20.3541 10.4676 19.7648C10.0402 19.5394 9.6129 19.2812 9.15367 19.1554C8.09853 18.8652 7.20102 19.585 7.13906 20.7592C7.41241 20.7336 7.67939 20.7108 7.94545 20.6843C8.98692 20.5794 9.80061 20.9234 10.2626 21.9041C10.5359 22.4788 10.7601 23.0755 11.0161 23.6575C11.3423 24.3992 11.5965 24.5287 12.361 24.3591C12.5688 24.3134 12.7765 24.2678 12.9788 24.2021C14.2353 23.8044 15.4854 23.8372 16.741 24.2195C18.7784 24.8435 20.6518 25.7129 21.9639 27.4964C22.5953 28.354 23.4409 28.9077 24.4696 29.2161C25.0474 29.3979 25.6096 29.6261 26.1508 29.8985C27.5512 30.5809 28.1344 31.755 27.7654 33.274C27.5175 34.3067 27.153 35.3056 26.836 36.3219C26.4241 37.6539 25.6952 38.7723 24.7029 39.7685C24.1358 40.3554 23.6458 41.0124 23.245 41.7236C22.6318 42.7864 21.9475 43.7698 21.0545 44.611C20.6613 44.9898 20.2907 45.3917 19.9447 45.8143C19.3862 46.4857 19.1939 47.2539 19.4108 48.116C19.5219 48.5575 19.5748 49.0155 19.7115 49.447C19.9766 50.2799 20.1115 51.0891 19.5101 51.85C34.8589 57.5272 52.0181 46.7749 53.2938 29.8821ZM3.14902 23.3884C3.04514 23.6155 2.96678 23.7177 2.95402 23.8272C2.81461 25.0615 2.58955 26.2968 2.57042 27.5338C2.495 31.4962 3.37419 35.4184 5.13356 38.9685C7.32767 43.4323 10.4858 47.0358 14.7665 49.6158C14.9488 49.7244 15.1501 49.7983 15.5246 49.9661C14.2754 48.0676 13.9756 46.1163 13.8617 44.1393C13.7706 42.5364 13.7761 40.9226 13.8444 39.3188C13.9073 37.8208 13.4699 36.5992 12.3665 35.5711C11.5461 34.7972 10.8982 33.8587 10.4649 32.8169C9.91815 31.5178 9.73591 30.1813 10.2298 28.8293C10.4211 28.3111 10.2936 27.948 9.91906 27.6187C9.41791 27.1789 8.95959 26.6626 8.39375 26.3287C6.68256 25.3179 4.92854 24.3791 3.14902 23.3884ZM51.4559 25.4711C51.5881 24.7513 51.2737 24.2742 50.8956 23.8427C50.2978 23.163 49.6737 22.5053 49.0577 21.8411C48.7999 21.5674 48.5338 21.2938 48.2222 20.9672C47.9561 22.6184 49.2454 24.3882 51.4559 25.4711Z" fill="#DBF066"/>
</g>
<defs>
<clipPath id="clip0_410_639">
<rect width="56" height="56" fill="white"/>
</clipPath>
</defs>
</svg>
